# xmcd
#
# Track frame offsets:
#	150
#	13522
#	32577
#	47737
#	65295
#	80470
#	96062
#	109262
#	124472
#	140855
#	155740
#	171877
#	188067
#	201897
#
# Disc length: 2861 seconds
#
# Revision: 1
# Processed by: cddbd v1.5.2PL0 Copyright (c) Steve Scherf et al.
# Submitted via: EZCDAudioConverter 2.5.0.1
#
DISCID=c30b2b0e
DTITLE=TRIO ALTO ASTRAL (CREONE, BARRERITO E VONINHO) - DOR DE COTOVELO
DYEAR=1998
DGENRE=Sertanejo
TTITLE0=DOR DE COTOVELO (BY DJ GILMAR SINISTRO)
TTITLE1=POR QUE? (BY DJ GILMAR SINISTRO)
TTITLE2=PEÃO DE RODEIO (BY DJ GILMAR SINISTRO)
TTITLE3=E AGORA MEU DEUS (BY DJ GILMAR SINISTRO)
TTITLE4=NAMORO OU AMIZADE (BY DJ GILMAR SINISTRO)
TTITLE5=ALTRO ASTRAL (BY DJ GILMAR SINISTRO)
TTITLE6=MULHER SEMPRE MULHER (BY DJ GILMAR SINISTRO)
TTITLE7=FERROADA DO AMOR (BY DJ GILMAR SINISTRO)
TTITLE8=VERDADE DÓI (BY DJ GILMAR SINISTRO)
TTITLE9=HOMEM DE PEDRA (BY DJ GILMAR SINISTRO)
TTITLE10=LEVANTANDO O PAU (BY DJ GILMAR SINISTRO)
TTITLE11=SOLIDÃO DE MADRUGADA (BY DJ GILMAR SINISTRO)
TTITLE12=GANHANDO NO BICHO (BY DJ GILMAR SINISTRO)
TTITLE13=REMÉDIO CONTROLADO (BY DJ GILMAR SINISTRO)
EXTD=
EXTT0=
EXTT1=
EXTT2=
EXTT3=
EXTT4=
EXTT5=
EXTT6=
EXTT7=
EXTT8=
EXTT9=
EXTT10=
EXTT11=
EXTT12=
EXTT13=
PLAYORDER=
